<svg width="984" height="312" viewBox="0 0 984 312" fill="none" xmlns="http://www.w3.org/2000/svg">
<path d="M248.513 126.005C261.653 115.336 223.159 84.3365 180.004 131.005C128.61 186.583 207.004 190.005 240.004 139.005C273.004 88.0049 298.85 57.553 306.004 58.005C335.004 59.837 216.5 141.01 229.5 169.005C242.5 197 318.848 177.673 343.004 153.505C367.159 129.337 385.342 101.747 335.004 108.005C300.159 112.337 274.188 149.837 279.504 163.505C284.482 176.306 301.004 194.005 380.004 126.005C404.659 104.783 327.967 154.904 335.004 169.005C340.659 180.337 371.504 177.505 398.504 147.505C425.504 117.505 461.159 98.337 439.159 108.005C417.24 117.637 365.159 176.837 417.659 173.837C469.692 170.864 499.159 106.337 488.659 106.337C478.159 106.337 402.629 276.795 373.659 251.337C343.504 224.837 481.844 162.461 494.504 153.505C515 139.005 564.641 139 577.504 118.505C591.348 96.4461 556 102.5 540.004 108.005C524.008 113.51 486.548 142.404 505.159 167.337C524.814 193.669 584.116 150.494 593.504 144.005C621 125 665.975 121.718 668.004 112.505C672.004 94.337 600.444 105.957 593.504 150.837C586.159 198.337 651 164.5 660.159 147.505C664.743 139 683.004 117.005 672.004 112.505C661.004 108.005 658 128.981 658 135.5C658 142.019 656.201 172.433 678.5 165C689 161.5 696.821 150.837 701.821 145.837C706.821 140.837 732.004 103.505 725.004 108.005C719.404 111.605 697.337 153.838 687.004 174.505C706.004 147.005 752.618 102.024 779.659 109.837C809.659 118.505 751.597 157.275 764.659 170.337C776.159 181.837 805.159 159.337 821.159 145.837" stroke="black"/>
</svg>
