<svg width="1115" height="341" viewBox="0 0 1115 341" fill="none" xmlns="http://www.w3.org/2000/svg">
<path d="M316.345 139.668C314.511 123.502 298.245 101.868 247.845 144.668C184.845 198.168 274.845 203.668 307.845 152.668C340.845 101.668 371.345 61.1685 373.845 71.6685C376.345 82.1685 288.845 166.168 294.345 182.668C299.845 199.168 390.345 194.668 410.845 167.168C431.345 139.668 449.345 121.668 402.845 121.668C356.345 121.668 343.845 168.168 347.345 177.168C350.845 186.168 368.845 207.668 447.845 139.668C526.845 71.6685 394.845 175.168 402.845 182.668C410.845 190.168 439.345 191.168 466.345 161.168C493.345 131.168 531.845 110.168 510.845 121.668C489.845 133.168 429.845 185.668 485.845 189.168C541.845 192.668 567.845 121.668 557.345 121.668C546.845 121.668 454.345 303.668 438.845 264.668C423.345 225.668 556.845 181.668 562.345 167.168C567.845 152.668 643.845 158.168 645.345 132.168C646.845 106.168 619.345 116.168 607.845 121.668C596.345 127.168 547.345 160.668 569.345 182.668C591.345 204.668 655.845 167.668 661.345 157.668C666.845 147.668 740.845 134.168 735.845 126.168C730.845 118.168 670.345 113.168 659.345 167.168C648.345 221.168 729.845 165.668 732.845 157.668C735.845 149.668 750.845 130.668 739.845 126.168C728.845 121.668 722.345 141.168 722.845 147.668C723.345 154.168 728.345 175.168 746.845 171.168C765.345 167.168 772.345 162.668 777.345 157.668C782.345 152.668 799.845 117.168 792.845 121.668C787.245 125.268 765.178 167.502 754.845 188.168C773.845 160.668 818.045 108.868 842.845 121.668C873.845 137.668 819.845 153.168 831.345 182.668C840.545 206.268 873.178 175.835 888.345 157.668" stroke="black"/>
</svg>
